<svg width="21" height="27" viewBox="0 0 21 27" fill="none" xmlns="http://www.w3.org/2000/svg">
<path d="M5.04 9.612C5.688 8.652 6.576 7.872 7.704 7.272C8.856 6.672 10.164 6.372 11.628 6.372C13.332 6.372 14.868 6.792 16.236 7.632C17.628 8.472 18.72 9.672 19.512 11.232C20.328 12.768 20.736 14.556 20.736 16.596C20.736 18.636 20.328 20.448 19.512 22.032C18.72 23.592 17.628 24.804 16.236 25.668C14.868 26.532 13.332 26.964 11.628 26.964C10.14 26.964 8.832 26.676 7.704 26.1C6.6 25.5 5.712 24.732 5.04 23.796V26.64H0V0H5.04V9.612ZM15.588 16.596C15.588 15.396 15.336 14.364 14.832 13.5C14.352 12.612 13.704 11.94 12.888 11.484C12.1004 11.0291 11.2055 10.793 10.296 10.8C9.384 10.8 8.52 11.04 7.704 11.52C6.912 11.976 6.264 12.648 5.76 13.536C5.28 14.424 5.04 15.468 5.04 16.668C5.04 17.868 5.28 18.912 5.76 19.8C6.264 20.688 6.912 21.372 7.704 21.852C8.52 22.308 9.384 22.536 10.296 22.536C11.232 22.536 12.096 22.296 12.888 21.816C13.704 21.336 14.352 20.652 14.832 19.764C15.336 18.876 15.588 17.82 15.588 16.596Z" fill="black"/>
</svg>
