<svg width="332" height="14" viewBox="0 0 50 14" fill="none" xmlns="http://www.w3.org/2000/svg">
<rect width="332" height="14" fill="#FAFAFA"/>
<path d="M1.5 11L10.5 3L17.5 11L27 3" stroke="#67BECE" stroke-width="3"/>
<path d="M17.5 11L26.5 3L33.5 11L43 3" stroke="#67BECE" stroke-width="3"/>
<path d="M33.5 11L42.5 3L49.5 11L59 3" stroke="#67BECE" stroke-width="3"/>
<path d="M49.5 11L58.5 3L65.5 11L75 3" stroke="#67BECE" stroke-width="3"/>
<path d="M65.5 11L74.5 3L81.5 11L91 3" stroke="#67BECE" stroke-width="3"/>
<path d="M81.5 11L90.5 3L97.5 11L107 3" stroke="#67BECE" stroke-width="3"/>
<path d="M97.5 11L106.5 3L113.5 11L123 3" stroke="#67BECE" stroke-width="3"/>
<path d="M113.5 11L122.5 3L129.5 11L139 3" stroke="#67BECE" stroke-width="3"/>
<path d="M129.5 11L138.5 3L145.5 11L155 3" stroke="#67BECE" stroke-width="3"/>
<path d="M145.5 11L154.5 3L161.5 11L171 3" stroke="#67BECE" stroke-width="3"/>
<path d="M161.5 11L170.5 3L177.5 11L187 3" stroke="#67BECE" stroke-width="3"/>
<path d="M177.5 11L186.5 3L193.5 11L203 3" stroke="#67BECE" stroke-width="3"/>
<path d="M193.5 11L202.5 3L209.5 11L219 3" stroke="#67BECE" stroke-width="3"/>
<path d="M209.5 11L218.5 3L225.5 11L235 3" stroke="#67BECE" stroke-width="3"/>
<path d="M225.5 11L234.5 3L241.5 11L251 3" stroke="#67BECE" stroke-width="3"/>
<path d="M241.5 11L250.5 3L257.5 11L267 3" stroke="#67BECE" stroke-width="3"/>
<path d="M257.5 11L266.5 3L273.5 11L283 3" stroke="#67BECE" stroke-width="3"/>
<path d="M273.5 11L282.5 3L289.5 11L299 3" stroke="#67BECE" stroke-width="3"/>
<path d="M289.5 11L298.5 3L305.5 11L315 3" stroke="#67BECE" stroke-width="3"/>
<path d="M305.5 11L314.5 3L321.5 11L331 3" stroke="#67BECE" stroke-width="3"/>
</svg>
