<svg width="30" height="30" viewBox="0 0 30 30" fill="none" xmlns="http://www.w3.org/2000/svg">
<path d="M30 0H0V30H30V0Z" fill="#ED2C49"/>
<path d="M15 3C8.37109 3 3 8.37109 3 15C3 20.6211 6.87109 25.3281 12.0938 26.6289C12.0352 26.4688 12 26.2812 12 26.0469V23.9961C11.5117 23.9961 10.6953 23.9961 10.4922 23.9961C9.67188 23.9961 8.94141 23.6445 8.58594 22.9883C8.19531 22.2578 8.125 21.1445 7.15234 20.4609C6.86328 20.2344 7.08203 19.9766 7.41406 20.0117C8.03125 20.1836 8.53906 20.6055 9.01953 21.2305C9.5 21.8594 9.72266 22 10.6172 22C11.0508 22 11.6992 21.9766 12.3086 21.8789C12.6367 21.0469 13.2031 20.2812 13.8945 19.918C9.89844 19.5078 7.99219 17.5195 7.99219 14.8203C7.99219 13.6562 8.48828 12.5352 9.32812 11.5859C9.05469 10.6484 8.70703 8.73047 9.43359 8C11.2344 8 12.3203 9.16406 12.582 9.48047C13.4766 9.17578 14.4609 9 15.4961 9C16.5312 9 17.5195 9.17578 18.418 9.48438C18.6758 9.17188 19.7617 8 21.5664 8C22.2969 8.73047 21.9453 10.6562 21.668 11.5938C22.5039 12.5391 22.9961 13.6602 22.9961 14.8203C22.9961 17.5156 21.0898 19.5039 17.1016 19.918C18.1992 20.4883 19 22.1016 19 23.3125V26.0469C19 26.1523 18.9766 26.2266 18.9648 26.3164C23.6406 24.6758 27 20.2344 27 15C27 8.37109 21.6289 3 15 3Z" fill="white"/>
</svg>
